<?xml version="1.0" encoding="UTF-8"?>
<svg id="Layer_1" xmlns="http://www.w3.org/2000/svg" version="1.1" viewBox="0 0 163.3 114.3">
  <!-- Generator: Adobe Illustrator 29.1.0, SVG Export Plug-In . SVG Version: 2.1.0 Build 142)  -->
  <defs>
    <style>
      .st0 {
        fill: #fff;
      }
    </style>
  </defs>
  <path class="st0" d="M159.9,17.9c-1.9-7-7.4-12.5-14.4-14.4C132.7,0,81.6,0,81.6,0,81.6,0,30.6,0,17.8,3.4c-7,1.9-12.5,7.4-14.4,14.4C0,30.6,0,57.2,0,57.2c0,0,0,26.6,3.4,39.3,1.9,7,7.4,12.6,14.4,14.4,12.7,3.4,63.8,3.4,63.8,3.4,0,0,51.1,0,63.8-3.4,7-1.9,12.5-7.4,14.4-14.4,3.4-12.7,3.4-39.3,3.4-39.3,0,0,0-26.6-3.4-39.3ZM65.3,81.6v-49l42.4,24.5-42.4,24.5Z"/>
</svg>